<?xml version="1.0" encoding="UTF-8" standalone="no"?>
<svg width="149px" height="64px" viewBox="0 0 149 64" version="1.1" xmlns="http://www.w3.org/2000/svg" xmlns:xlink="http://www.w3.org/1999/xlink" xmlns:sketch="http://www.bohemiancoding.com/sketch/ns">
    <!-- Generator: Sketch 3.4.1 (15681) - http://www.bohemiancoding.com/sketch -->
    <title>6fusion_logo_CLR</title>
    <desc>Created with Sketch.</desc>
    <defs>
        <path id="path-1" d="M0,64 L148.099,64 L148.099,0.879 L0,0.879"></path>
    </defs>
    <g id="Page-1" stroke="none" stroke-width="1" fill="none" fill-rule="evenodd" sketch:type="MSPage">
        <g id="6fusion_logo_CLR" sketch:type="MSLayerGroup">
            <path d="M88.3,5.144 C88.108,5.75 88.019,6.367 88.019,6.972 C88.019,9.544 89.669,11.934 92.254,12.751 C92.858,12.941 93.477,13.032 94.081,13.032 C96.653,13.032 99.041,11.383 99.86,8.798 C100.053,8.189 100.146,7.574 100.146,6.97 C100.146,4.398 98.492,2.01 95.907,1.192 C95.299,1.001 94.682,0.908 94.081,0.908 C91.505,0.911 89.12,2.559 88.3,5.144" id="Fill-1" fill="#98C23C" sketch:type="MSShapeGroup"></path>
            <path d="M126.182,5.144 C125.986,5.75 125.897,6.367 125.897,6.972 C125.897,9.544 127.548,11.934 130.132,12.751 C130.739,12.941 131.354,13.032 131.959,13.032 C134.533,13.032 136.919,11.383 137.738,8.798 C137.931,8.189 138.023,7.574 138.023,6.97 C138.023,4.398 136.372,2.01 133.785,1.192 C133.181,1.001 132.563,0.908 131.961,0.908 C129.387,0.911 126.998,2.559 126.182,5.144" id="Fill-2" fill="#98C23C" sketch:type="MSShapeGroup"></path>
            <path d="M126.182,24.181 C125.986,24.79 125.897,25.406 125.897,26.011 C125.897,28.584 127.548,30.972 130.132,31.788 C130.739,31.978 131.354,32.07 131.959,32.07 C134.533,32.07 136.919,30.423 137.738,27.838 C137.931,27.227 138.023,26.612 138.023,26.009 C138.023,23.436 136.372,21.047 133.785,20.231 C133.181,20.04 132.563,19.948 131.961,19.948 C129.387,19.95 126.998,21.598 126.182,24.181" id="Fill-3" fill="#98C23C" sketch:type="MSShapeGroup"></path>
            <g id="Group-10">
                <mask id="mask-2" sketch:name="Clip 5" fill="white">
                    <use xlink:href="#path-1"></use>
                </mask>
                <g id="Clip-5"></g>
                <path d="M107.34,24.181 C107.149,24.79 107.057,25.406 107.057,26.011 C107.057,28.584 108.705,30.972 111.29,31.788 C111.898,31.978 112.513,32.07 113.117,32.07 C115.693,32.07 118.08,30.423 118.897,27.838 C119.089,27.227 119.182,26.612 119.182,26.009 C119.182,23.436 117.529,21.047 114.944,20.231 C114.337,20.04 113.722,19.948 113.12,19.948 C110.545,19.95 108.156,21.598 107.34,24.181" id="Fill-4" fill="#98C23C" sketch:type="MSShapeGroup" mask="url(#mask-2)"></path>
                <path d="M95.765,58.391 L95.765,39.577 L91.607,39.577 L91.607,58.391 C91.607,60.427 91.995,62.119 92.93,63.386 L93.15,63.68 L93.23,63.794 L97.938,63.794 L96.961,62.248 C96.145,60.952 95.765,59.688 95.765,58.391 L95.765,58.391 Z M140.798,40.526 L140.798,40.528 C139.75,40.198 138.717,40.029 137.715,40.029 L137.707,40.029 C137.699,40.024 137.689,40.024 137.672,40.029 L137.651,40.029 C136.645,40.029 135.613,40.198 134.563,40.523 C129.908,41.894 127.247,45.234 127.261,49.846 C127.261,49.881 127.261,49.924 127.265,49.974 L127.265,63.116 L131.422,63.116 L131.422,49.998 C131.489,47.1 132.712,45.522 135.896,44.474 C136.561,44.277 137.174,44.185 137.74,44.182 C138.257,44.182 138.832,44.275 139.466,44.474 C142.65,45.522 143.878,47.1 143.945,50.002 L143.945,63.119 L148.099,63.119 L148.099,49.846 C148.11,45.269 145.455,41.936 140.798,40.526 L140.798,40.526 Z M117.168,57.171 C115.575,58.752 113.743,59.51 111.515,59.518 C109.243,59.51 107.395,58.748 105.809,57.171 C104.224,55.579 103.461,53.732 103.457,51.461 C103.461,49.231 104.224,47.4 105.809,45.806 C107.395,44.228 109.243,43.468 111.515,43.458 C113.743,43.468 115.575,44.228 117.168,45.806 C118.746,47.4 119.508,49.231 119.512,51.461 C119.508,53.732 118.742,55.579 117.168,57.171 L117.168,57.171 Z M111.552,39.577 L111.519,39.577 L111.489,39.577 C108.253,39.574 105.378,40.761 103.085,43.053 C100.768,45.333 99.57,48.2 99.57,51.44 L99.57,51.461 L99.57,51.477 C99.57,54.752 100.768,57.641 103.085,59.925 C105.378,62.212 108.249,63.4 111.484,63.4 L111.489,63.398 L111.54,63.4 L111.544,63.4 C114.779,63.4 117.643,62.212 119.922,59.92 C122.214,57.641 123.399,54.756 123.395,51.488 L123.395,51.461 L123.395,51.434 C123.399,48.197 122.21,45.333 119.918,43.056 C117.643,40.768 114.779,39.574 111.552,39.577 L111.552,39.577 Z M77.67,41.308 C75.897,42.675 74.908,44.533 74.91,46.627 C74.91,46.631 74.91,46.644 74.912,46.665 C74.91,46.669 74.91,46.673 74.91,46.683 C74.91,48.739 75.803,50.715 77.417,52.523 C78.821,54.106 79.418,55.47 79.418,56.57 C79.418,56.57 79.414,56.578 79.418,56.607 C79.396,57.339 79.138,57.868 78.363,58.503 C77.518,59.167 76.838,59.413 76.385,59.413 L76.372,59.413 L76.338,59.413 L68.598,59.413 L68.598,63.57 L76.385,63.57 C78.145,63.57 79.806,62.871 81.258,61.598 C82.758,60.309 83.575,58.571 83.575,56.617 L83.575,56.586 C83.571,54.678 82.665,52.795 81.074,50.944 C79.688,49.33 79.079,47.912 79.062,46.728 L79.062,46.672 C79.079,45.904 79.367,45.29 80.217,44.576 C81.013,43.977 81.714,43.734 82.339,43.734 L88.282,43.734 L88.389,39.577 L82.331,39.577 C80.69,39.577 79.108,40.189 77.67,41.308 L77.67,41.308 Z M63.618,53.547 L63.618,53.547 C63.552,56.439 62.327,58.014 59.146,59.065 C58.417,59.26 57.802,59.355 57.375,59.355 C57.375,59.355 57.373,59.355 57.37,59.352 C57.362,59.352 57.352,59.351 57.328,59.355 C56.905,59.352 56.289,59.256 55.537,59.052 C52.389,58.014 51.162,56.439 51.094,53.541 L51.094,39.521 L46.937,39.521 L46.937,53.547 C46.936,53.58 46.936,53.622 46.936,53.662 C46.922,58.262 49.584,61.591 54.244,62.96 C55.356,63.32 56.394,63.51 57.356,63.51 C58.321,63.51 59.356,63.32 60.484,62.956 C65.133,61.552 67.789,58.227 67.775,53.662 L67.775,39.521 L63.618,39.521 L63.618,53.547 L63.618,53.547 Z" id="Fill-6" fill="#FFFFFF" sketch:type="MSShapeGroup" mask="url(#mask-2)"></path>
                <path d="M48.058,19.403 C45.363,19.403 42.39,19.955 39.123,21.028 C36.666,21.817 34.835,22.831 33.693,24.23 C32.377,25.723 31.777,27.852 31.777,30.443 L31.777,39.801 L27.553,39.801 L27.553,43.958 L28.669,43.958 L28.669,43.962 L31.777,43.962 L31.777,63.116 L35.937,63.116 L35.937,43.962 L43.016,43.962 L43.016,39.83 L35.937,39.83 L35.937,30.457 C36.008,27.52 37.241,25.959 40.476,24.961 C43.919,23.979 46.494,23.502 48.035,23.502 L49.065,23.504 L49.065,19.403 L48.058,19.403" id="Fill-7" fill="#FFFFFF" sketch:type="MSShapeGroup" mask="url(#mask-2)"></path>
                <path d="M118.536,9.637 C117.774,10.953 116.403,12.009 114.912,12.348 L114.437,12.438 C113.388,12.605 108.093,13.556 104.396,17.272 C103.658,18.02 103.013,18.85 102.459,19.738 C101.605,21.111 100.917,22.598 100.438,24.145 C100.26,24.714 100.078,25.303 99.946,25.904 C99.767,26.734 99.685,27.566 99.431,28.279 C98.855,29.886 97.384,31.2 95.751,31.711 C95.164,31.896 94.571,31.986 93.992,31.986 C91.526,31.986 89.376,30.352 88.422,27.889 C88.2,27.324 88.092,26.684 88.092,26.04 C88.092,25.449 88.18,24.857 88.354,24.326 C88.535,23.743 88.843,23.133 89.195,22.637 C89.8,21.791 90.734,21.06 91.701,20.689 C92.854,20.243 94.208,20.174 95.523,19.762 C96.749,19.371 97.946,18.92 99.101,18.326 C100.443,17.635 101.71,16.746 102.793,15.682 C106.512,11.987 107.458,6.688 107.629,5.631 L107.655,5.516 C107.695,5.331 107.741,5.155 107.792,4.99 C108.488,2.786 110.368,1.292 112.509,0.975 L113.05,0.897 C113.188,0.886 113.33,0.879 113.477,0.879 C114.509,0.879 115.621,1.178 116.452,1.738 C118.256,2.951 119.324,4.838 119.321,6.8 C119.321,7.198 119.278,7.598 119.19,8.001 C119.062,8.561 118.848,9.113 118.536,9.637" id="Fill-8" fill="#98C23C" sketch:type="MSShapeGroup" mask="url(#mask-2)"></path>
                <path d="M19.803,51.566 C19.262,47.05 15.026,44.239 11.182,44.698 C7.24,45.17 3.922,49.221 4.393,53.163 C4.893,57.345 8.862,60.38 12.996,59.889 C17.033,59.406 20.285,55.603 19.803,51.566 L19.803,51.566 Z M16.775,27.454 L8.676,41.684 L8.786,41.767 C9.779,41.112 10.939,40.634 12.239,40.477 C18.198,39.767 23.375,44.754 24.071,50.569 C24.861,57.204 20.109,63.134 13.527,63.919 C7.278,64.665 0.841,60.17 0.078,53.774 C-0.358,50.125 1.101,46.829 2.877,43.742 L13.243,25.633 L16.775,27.454 L16.775,27.454 Z" id="Fill-9" fill="#98C23C" sketch:type="MSShapeGroup" mask="url(#mask-2)"></path>
            </g>
        </g>
    </g>
</svg>