<?xml version="1.0" encoding="UTF-8" standalone="no"?>
<svg width="90px" height="90px" viewBox="0 0 90 90" version="1.1" xmlns="http://www.w3.org/2000/svg" xmlns:xlink="http://www.w3.org/1999/xlink" xmlns:sketch="http://www.bohemiancoding.com/sketch/ns">
    <!-- Generator: Sketch 3.1.1 (8761) - http://www.bohemiancoding.com/sketch -->
    <title>paraglider</title>
    <desc>Created with Sketch.</desc>
    <defs></defs>
    <g id="Page-1" stroke="none" stroke-width="1" fill="none" fill-rule="evenodd" sketch:type="MSPage">
        <g id="paraglider" sketch:type="MSLayerGroup" fill="#000000">
            <path d="M-2.22044605e-16,20.4 C0.1,19.4 0.9,18.5 1.9,18.3 L87,0.1 C87.8,-0.1 88.6,0.2 89.2,0.8 C89.8,1.4 90,2.2 89.9,3 L71.7,88.1 C71.5,89.1 70.6,89.9 69.6,90 L69.3,90 C68.3,90 67.5,89.4 67.1,88.6 L54.9,61.2 C54.4,60 54.9,58.5 56.1,58 C57.3,57.5 58.8,58 59.3,59.2 L68.4,79.7 L84.3,5.5 L10.2,21.5 L30.7,30.6 C31.9,31.1 32.5,32.6 31.9,33.8 C31.4,35 29.9,35.6 28.7,35 L1.4,22.9 C0.5,22.5 -0.1,21.5 -2.22044605e-16,20.4 L-2.22044605e-16,20.4 Z M48.6,32.8 C48.6,28.1 52.4,24.3 57.1,24.3 C61.8,24.3 65.6,28.1 65.6,32.8 C65.6,37.5 61.8,41.3 57.1,41.3 C52.5,41.4 48.6,37.5 48.6,32.8 L48.6,32.8 Z M53.5,32.8 C53.5,34.8 55.1,36.4 57.1,36.4 C59.1,36.4 60.7,34.8 60.7,32.8 C60.7,30.8 59.1,29.2 57.1,29.2 C55.2,29.2 53.5,30.8 53.5,32.8 L53.5,32.8 Z M15.9,74.1 C16.4,74.6 17,74.8 17.6,74.8 C18.1,74.8 18.5,74.7 18.9,74.4 L54.4,50.7 L62.4,53.4 C63.3,53.7 64.2,53.5 64.9,52.8 L74,43.7 C75,42.8 75,41.2 74,40.3 C73.1,39.3 71.5,39.3 70.6,40.3 L62.5,48.4 L54.8,45.8 C54.1,45.6 53.3,45.7 52.7,46.1 L26.4,63.6 L44,37.2 C44.4,36.6 44.5,35.8 44.3,35.1 L41.7,27.4 L49.8,19.3 C50.8,18.4 50.8,16.8 49.8,15.9 C48.9,14.9 47.3,14.9 46.4,15.9 L37.3,25 C36.6,25.7 36.4,26.6 36.7,27.5 L39.4,35.5 L15.6,71 C15,72 15.1,73.3 15.9,74.1 L15.9,74.1 Z" sketch:type="MSShapeGroup"></path>
        </g>
    </g>
</svg>